<?xml version="1.0" encoding="UTF-8" standalone="no"?>
<svg width="240px" height="136px" viewBox="0 0 240 136" version="1.1" xmlns="http://www.w3.org/2000/svg" xmlns:xlink="http://www.w3.org/1999/xlink" xmlns:sketch="http://www.bohemiancoding.com/sketch/ns">
    <!-- Generator: Sketch 3.3.3 (12081) - http://www.bohemiancoding.com/sketch -->
    <title>alias illustration</title>
    <desc>Created with Sketch.</desc>
    <defs></defs>
    <g id="Page-1" stroke="none" stroke-width="1" fill="none" fill-rule="evenodd" sketch:type="MSPage">
        <g id="SR-2-Copy-6" sketch:type="MSArtboardGroup" transform="translate(-320.000000, -317.000000)">
            <g id="alias-illustration" sketch:type="MSLayerGroup" transform="translate(320.000000, 317.000000)">
                <rect id="Rectangle-471" stroke="#254D7F" stroke-width="2" fill="#FFFFFF" sketch:type="MSShapeGroup" x="42" y="1" width="153" height="108" rx="8"></rect>
                <rect id="Rectangle-472" fill="#59AFE1" sketch:type="MSShapeGroup" x="44" y="19" width="149" height="65"></rect>
                <path d="M194.692908,57.0318478 C194.5,57.0318483 194.5,60.7106775 194.5,39.9999994 L194.5,7 C194.5,7.00000025 194.5,0.807844952 181.642551,0.807844888 C176.847039,7.10789047 174,14.9714644 174,23.5 C174,38.167956 182.421389,50.8689913 194.692908,57.0318478 Z" id="Oval-197" fill-opacity="0.1" fill="#333333" sketch:type="MSShapeGroup"></path>
                <path d="M43.5033333,18 L193.500046,18" id="Line" stroke="#254D7F" stroke-width="2" stroke-linecap="square" sketch:type="MSShapeGroup"></path>
                <path d="M43.5033333,84 L193.500046,84" id="Line-Copy" stroke="#254D7F" stroke-width="2" stroke-linecap="square" sketch:type="MSShapeGroup"></path>
                <circle id="Oval-195" fill="#DDDDDD" sketch:type="MSShapeGroup" cx="118.5" cy="96.5" r="3.5"></circle>
                <rect id="Rectangle-473" stroke="#254D7F" fill="#F5F5F5" sketch:type="MSShapeGroup" x="82" y="27" width="73" height="49" rx="3"></rect>
                <rect id="Rectangle-474" fill="#254D7F" sketch:type="MSShapeGroup" x="82" y="27" width="73" height="6" rx="3"></rect>
                <rect id="Rectangle-475" fill="#FFFFFF" sketch:type="MSShapeGroup" x="98" y="33" width="45" height="42"></rect>
                <rect id="Rectangle-476" fill="#D8D8D8" sketch:type="MSShapeGroup" x="98" y="69" width="45" height="6"></rect>
                <path d="M100.5,42.5 L139.512817,42.5" id="Line" stroke="#979797" stroke-linecap="square" sketch:type="MSShapeGroup"></path>
                <path d="M100.5,47.5 L139.512817,47.5" id="Line-Copy-4" stroke="#979797" stroke-linecap="square" sketch:type="MSShapeGroup"></path>
                <path d="M100.5,52.5 L139.512817,52.5" id="Line-Copy-5" stroke="#979797" stroke-linecap="square" sketch:type="MSShapeGroup"></path>
                <path d="M104.49537,72.5 L210.50463,72.5" id="Line" stroke="#254D7F" stroke-linecap="square" sketch:type="MSShapeGroup"></path>
                <rect id="Rectangle-488" fill="#FFFFFF" sketch:type="MSShapeGroup" x="99" y="70" width="4" height="4"></rect>
                <path d="M210.5,72.5344828 L210.5,46.4488969" id="Line" stroke="#254D7F" stroke-linecap="square" sketch:type="MSShapeGroup"></path>
                <circle id="Oval-196" stroke="#3572B0" stroke-width="2" fill="#F79232" sketch:type="MSShapeGroup" cx="210.5" cy="23.5" r="22.5"></circle>
                <text id="@" sketch:type="MSTextLayer" font-family="Arial" font-size="20" font-weight="normal" fill="#FFFFFF">
                    <tspan x="201" y="29">@</tspan>
                </text>
                <path d="M100,122 C100,121.351983 102,118.675992 102,118 L102,107 L136,107 L136,118 C136,118.655686 138,121.311372 138,122 L138,128 L100,128 L100,122 Z" id="Rectangle-477" stroke="#254D7F" stroke-width="2" fill="#E9E9E9" sketch:type="MSShapeGroup"></path>
                <rect id="Rectangle-478" fill="#D5D9DE" sketch:type="MSShapeGroup" x="102" y="123" width="34" height="3"></rect>
                <rect id="Rectangle-479" fill="#F5F5F5" sketch:type="MSShapeGroup" x="0" y="128" width="240" height="8"></rect>
                <rect id="Rectangle-480" stroke="#CED9E3" stroke-width="2" sketch:type="MSShapeGroup" x="201" y="108" width="22" height="20" rx="3"></rect>
                <rect id="Rectangle-480-Copy" stroke="#CED9E3" stroke-width="2" sketch:type="MSShapeGroup" x="11" y="78" width="22" height="50" rx="3"></rect>
                <rect id="Rectangle-482" stroke="#CED9E3" stroke-width="2" sketch:type="MSShapeGroup" x="17" y="69" width="10" height="9" rx="3"></rect>
                <path d="M13,92 C18.5018446,92 17.5,93.5 23.5,93.5 C29.5,93.5 30.5018446,92 31,92 L31,117.000165 C31,121.970637 26.9716556,126 22,126 L22,126 C17.0294373,126 13,121.966238 13,117.000165 L13,92 Z" id="Rectangle-483" fill-opacity="0.2" fill="#59AFE1" sketch:type="MSShapeGroup"></path>
            </g>
        </g>
    </g>
</svg>